<svg width="29" height="17" viewBox="0 0 29 17" fill="none" xmlns="http://www.w3.org/2000/svg">
<g clip-path="url(#clip0_46_357)">
<path fill-rule="evenodd" clip-rule="evenodd" d="M0.423639 0.565706C-0.141861 1.19161 -0.141861 2.20389 0.423639 2.82825L12.4064 16.062C12.6706 16.3582 12.9885 16.5941 13.3408 16.7553C13.6932 16.9165 14.0726 16.9996 14.456 16.9996C14.8394 16.9996 15.2189 16.9165 15.5712 16.7553C15.9235 16.5941 16.2415 16.3582 16.5056 16.062L28.5768 2.73243C28.8466 2.42992 28.9982 2.0293 29.0009 1.61194C29.0036 1.19459 28.8572 0.791787 28.5913 0.485343C28.4601 0.333536 28.3009 0.21207 28.1238 0.128468C27.9467 0.0448653 27.7554 0.000906125 27.5617 -0.000687543C27.368 -0.00228121 27.176 0.0385245 26.9977 0.119203C26.8194 0.199881 26.6586 0.318714 26.5251 0.468343L15.4804 12.6682C15.3484 12.8164 15.1894 12.9344 15.0131 13.0151C14.8369 13.0958 14.6471 13.1374 14.4553 13.1374C14.2635 13.1374 14.0737 13.0958 13.8975 13.0151C13.7212 12.9344 13.5622 12.8164 13.4301 12.6682L2.47249 0.565706C2.34054 0.417512 2.18167 0.299499 2.00555 0.218853C1.82943 0.138207 1.63975 0.0966181 1.44806 0.0966181C1.25638 0.0966181 1.0667 0.138207 0.890581 0.218853C0.714462 0.299499 0.55559 0.417512 0.423639 0.565706Z" fill="#EDEDFF"/>
</g>
<defs>
<clipPath id="clip0_46_357">
<rect width="17" height="29" fill="white" transform="translate(29) rotate(90)"/>
</clipPath>
</defs>
</svg>
