<svg width="29" height="17" viewBox="0 0 29 17" fill="none" xmlns="http://www.w3.org/2000/svg">
<g clip-path="url(#clip0_46_374)">
<path fill-rule="evenodd" clip-rule="evenodd" d="M28.5764 16.4343C29.1419 15.8084 29.1419 14.7961 28.5764 14.1717L16.5936 0.938017C16.3294 0.641787 16.0115 0.405907 15.6592 0.244724C15.3068 0.083544 14.9274 0.000425517 14.544 0.000425512C14.1606 0.000425508 13.7811 0.0835439 13.4288 0.244724C13.0765 0.405907 12.7585 0.641787 12.4944 0.938017L0.423161 14.2676C0.153385 14.5701 0.00175306 14.9707 -0.000940048 15.3881C-0.00363316 15.8054 0.142815 16.2082 0.408661 16.5147C0.539945 16.6665 0.69907 16.7879 0.876183 16.8715C1.0533 16.9551 1.24463 16.9991 1.43833 17.0007C1.63203 17.0023 1.82397 16.9615 2.00228 16.8808C2.18058 16.8001 2.34144 16.6813 2.47491 16.5317L13.5196 4.33184C13.6516 4.1836 13.8106 4.06556 13.9869 3.98489C14.1631 3.90423 14.3529 3.86263 14.5447 3.86263C14.7365 3.86263 14.9263 3.90423 15.1025 3.98489C15.2788 4.06556 15.4378 4.1836 15.5699 4.33184L26.5275 16.4343C26.6595 16.5825 26.8183 16.7005 26.9945 16.7811C27.1706 16.8618 27.3602 16.9034 27.5519 16.9034C27.7436 16.9034 27.9333 16.8618 28.1094 16.7811C28.2855 16.7005 28.4444 16.5825 28.5764 16.4343Z" fill="white"/>
</g>
<defs>
<clipPath id="clip0_46_374">
<rect width="17" height="29" fill="white" transform="translate(0 17) rotate(-90)"/>
</clipPath>
</defs>
</svg>
