<svg width="17" height="17" viewBox="0 0 17 17" fill="none" xmlns="http://www.w3.org/2000/svg">
<g clip-path="url(#clip0_65_45)">
<path d="M3.86277 5.65576H0.210449V16.6237H3.86277V5.65576Z" fill="white"/>
<path d="M15.8491 6.65768C15.0819 5.82019 14.0672 5.40137 12.8056 5.40137C12.3408 5.40137 11.9182 5.45855 11.5382 5.57298C11.1582 5.68734 10.8373 5.84779 10.5753 6.05441C10.3135 6.26103 10.1049 6.45284 9.95007 6.62984C9.80284 6.79797 9.65886 6.99381 9.51838 7.21536V5.65575H5.87695L5.88812 6.18707C5.8956 6.54134 5.89928 7.63329 5.89928 9.46305C5.89928 11.293 5.89192 13.6798 5.87711 16.6239H9.51838V10.5033C9.51838 10.1271 9.55873 9.82834 9.64006 9.6068C9.79512 9.23031 10.0291 8.9151 10.3429 8.66065C10.6566 8.40588 11.0457 8.27861 11.5107 8.27861C12.1451 8.27861 12.6119 8.4981 12.9108 8.93712C13.2096 9.3761 13.359 9.98302 13.359 10.7578V16.6235H17.0002V10.3375C17 8.72143 16.6166 7.49489 15.8491 6.65768Z" fill="white"/>
<path d="M2.05856 0.376465C1.44622 0.376465 0.950061 0.555522 0.569967 0.913289C0.189911 1.27113 0 1.7229 0 2.26903C0 2.80752 0.184445 3.25774 0.553375 3.61919C0.922189 3.98068 1.40924 4.16152 2.01425 4.16152H2.03638C2.65624 4.16152 3.1562 3.98084 3.53614 3.61919C3.91608 3.25774 4.10234 2.80768 4.09502 2.26903C4.08765 1.72294 3.89937 1.27113 3.53055 0.913289C3.16178 0.555367 2.67093 0.376465 2.05856 0.376465Z" fill="white"/>
</g>
<defs>
<clipPath id="clip0_65_45">
<rect width="17" height="17" fill="white"/>
</clipPath>
</defs>
</svg>
