<svg width="12" height="20" viewBox="0 0 12 20" fill="none" xmlns="http://www.w3.org/2000/svg">
<g clip-path="url(#clip0_65_29)">
<path d="M5.99989 10.1238C8.78812 10.1238 11.0496 7.85763 11.0496 5.06238C11.0496 2.26618 8.78812 0 5.99989 0C3.21166 0 0.951167 2.26618 0.951167 5.06142C0.951167 7.85763 3.21166 10.1238 5.99989 10.1238ZM5.99989 2.57182C7.37182 2.57182 8.48422 3.68701 8.48422 5.06238C8.48422 6.43776 7.37182 7.55295 5.99989 7.55295C4.62797 7.55295 3.51557 6.43679 3.51557 5.06142C3.51557 3.68604 4.62797 2.57182 5.99989 2.57182ZM11.8204 10.7409C11.5349 10.1664 10.7457 9.68952 9.69695 10.5184C8.27872 11.6385 6.00086 11.6385 6.00086 11.6385C6.00086 11.6385 3.723 11.6385 2.30476 10.5184C1.25507 9.68952 0.465879 10.1673 0.181268 10.7409C-0.315597 11.7419 0.245908 12.2256 1.51267 13.0409C2.59516 13.7373 4.0819 13.9975 5.04282 14.0952L4.24109 14.8989C3.11229 16.0306 2.02208 17.1235 1.26569 17.8818C0.813202 18.3354 0.813202 19.0695 1.26569 19.5232L1.40172 19.6595C1.85421 20.1132 2.58648 20.1132 3.03896 19.6595L6.01436 16.6767C7.14316 17.8083 8.23337 18.9012 8.98976 19.6595C9.44225 20.1132 10.1745 20.1132 10.627 19.6595L10.763 19.5232C11.2155 19.0695 11.2155 18.3354 10.763 17.8818L7.78764 14.8989L6.98397 14.0932C7.9449 13.9936 9.4162 13.7325 10.49 13.0419C11.7558 12.2256 12.3173 11.7419 11.8204 10.7409Z" fill="white"/>
</g>
<defs>
<clipPath id="clip0_65_29">
<rect width="12" height="20" fill="white"/>
</clipPath>
</defs>
</svg>
